<svg id="Shape" xmlns="http://www.w3.org/2000/svg" viewBox="0 0 149.74 149.74"><path d="M144.08,45.73A75,75,0,1,0,150,74.87,74.58,74.58,0,0,0,144.08,45.73ZM142.5,77.88l-19.39,9.85L86.63,55.55l-2.1.83c-.44.17-10.84,4.3-17.93,10.28-3.23,2.73-6.5,3.13-8.47,2.6a2.42,2.42,0,0,1-1.67-1.09c-.39-1.08-.55-3.91,1.27-7.62,1.6-3.28,5.26-8.2,13.55-13l.21-.12c7.71-4.49,12-7,15-7.41,2.44-.37,4.63.56,10,3.55,11.54,6.44,17.9,8,27.42,1L132,38.61a67.1,67.1,0,0,1,10.59,36.26C142.56,75.88,142.54,76.88,142.5,77.88Zm-30.41,22.68a12,12,0,0,0-1.3-1.56c-2.55-2.55-14.08-13.15-14.57-13.6a3.7,3.7,0,1,0-5,5.45c.12.11,11.9,10.94,14.34,13.39,1.2,1.19,1.85,3.47-.23,6-1.1,1.34-3.46.8-4.53.46L86.3,96.45a3.7,3.7,0,1,0-5.19,5.28l13.1,12.88a3.94,3.94,0,0,0-.1.7c-.11,2.63-.74,4.45-1.79,5.14-1.3.86-3.55.34-4.38,0l-7.67-3.68a10,10,0,0,0-4.49-7.12,9.74,9.74,0,0,0-7.14-1.12,9.72,9.72,0,0,0-3.73-6.48,9.82,9.82,0,0,0-7.82-1.63,10.11,10.11,0,0,0-4.13-8A9.74,9.74,0,0,0,45.82,91v-.19a10.2,10.2,0,0,0-4.14-8.31,10.14,10.14,0,0,0-9.24-1,15.61,15.61,0,0,0-7.14,5.33L7.63,74.37A67.11,67.11,0,0,1,17.71,39.42L31,47.25a14.39,14.39,0,0,0,9.06,3.19,16.43,16.43,0,0,0,9.43-3.16l.57-.39c6.21-4.31,10.48-7.26,16.2-5C48.79,52.62,47.59,65.32,49.48,70.64a9.45,9.45,0,0,0,6.71,5.76c4.91,1.33,10.58-.2,15.19-4.08,4.41-3.73,10.62-6.76,13.8-8.18l33.2,29.29a6.12,6.12,0,0,1-.61,5.64C116.74,100.84,113.77,100.76,112.09,100.56Zm-56.49,18a2.78,2.78,0,0,1-3.78-2.82,9.37,9.37,0,0,1,2-4.75,8.42,8.42,0,0,1,4.09-3.09,4.16,4.16,0,0,1,1.29-.22,2.09,2.09,0,0,1,1.28.37,3,3,0,0,1,.89,2.43,8,8,0,0,1-1,3.57,18.86,18.86,0,0,0-1.13,1.63l-.09.15A8.76,8.76,0,0,1,55.6,118.54ZM36.78,95.83c-.3.44-2.61,3.65-5,3.65A2.79,2.79,0,0,1,29,96.56a9.34,9.34,0,0,1,1.86-4.82,8.49,8.49,0,0,1,4-3.22,4.41,4.41,0,0,1,1.39-.26,2,2,0,0,1,1.19.33,3,3,0,0,1,1,2.39A8.49,8.49,0,0,1,36.78,95.83Zm5.4,5.91c1.59-2.28,3.78-3.48,5.35-3.48a2.12,2.12,0,0,1,1.21.33,3,3,0,0,1,1,2.39,8.56,8.56,0,0,1-1.64,4.86c-.37.53-3.69,5.14-6.55,3.15S41.81,102.28,42.18,101.74ZM65.26,120l.26-.33a16.72,16.72,0,0,0,1-1.42,7.83,7.83,0,0,1,2.86-2.17,4.27,4.27,0,0,1,1.53-.34,2,2,0,0,1,1,.27A3.25,3.25,0,0,1,73,118.93a1.93,1.93,0,0,0,0,.24,8.92,8.92,0,0,1-1.37,4.11A9.3,9.3,0,0,1,68,126.91a2.76,2.76,0,0,1-4-2.46A8.85,8.85,0,0,1,65.26,120ZM75.1,7.4a67.38,67.38,0,0,1,52.55,25.2l-8.16,5.95h0c-5.76,4.26-8.42,4.67-19.42-1.47-5.82-3.25-9.71-5.16-14.7-4.41-3.27.5-6.54,2-11.62,4.89-11.75-7.93-20.29-2-27.87,3.23l-.57.4a8.38,8.38,0,0,1-6.81,1.66,7.19,7.19,0,0,1-2.76-1.33l-.23-.24L22,33.33A67.42,67.42,0,0,1,75.1,7.4Zm0,134.94A67.57,67.57,0,0,1,8.23,83.85L22,93.6a13.07,13.07,0,0,0-.37,2.88,10.12,10.12,0,0,0,11.3,10.34,10,10,0,0,0,11.51,10,10.16,10.16,0,0,0,10,9.35,10.25,10.25,0,0,0,2.19-.23,10.21,10.21,0,0,0,10,8.71,10.56,10.56,0,0,0,4.36-1,16.23,16.23,0,0,0,6.93-6.5,17.11,17.11,0,0,0,1.31-2.6l5.62,2.69.22.1a14.92,14.92,0,0,0,5.29,1,10.78,10.78,0,0,0,5.92-1.65c2.63-1.7,4.28-4.49,4.91-8.31a13.86,13.86,0,0,0,1.84.13,9.92,9.92,0,0,0,8-3.55,12.76,12.76,0,0,0,3-6.87c3.71-.1,7.88-1.35,10.16-5.31a14,14,0,0,0,2-8.28l15.38-7.82A67.58,67.58,0,0,1,75.1,142.34Z" transform="translate(-0.23)"/></svg>