<svg xmlns="http://www.w3.org/2000/svg" viewBox="0 0 134.93 142.34" width="40" height="40"
    fill="none">
    <g id="Shape">
        <polygon points="67.46 142.34 67.47 142.34 67.46 142.34 67.46 142.34" />
        <path fill="currentColor"
            d="M35.72,41.53a7.19,7.19,0,0,0,2.76,1.33,8.38,8.38,0,0,0,6.81-1.66l.57-.4C53.44,35.55,62,29.64,73.73,37.57c5.07-2.85,8.35-4.39,11.62-4.89,5-.75,8.88,1.16,14.7,4.41,11,6.14,13.66,5.73,19.42,1.47h0l8.16-5.95A67.4,67.4,0,0,0,22,33.33l13.53,8Z"
            transform="translate(-7.63 -7.4)" />
        <path fill="currentColor"
            d="M70.86,115.74a4.27,4.27,0,0,0-1.53.34,7.83,7.83,0,0,0-2.86,2.17,16.72,16.72,0,0,1-1,1.42l-.26.33A8.85,8.85,0,0,0,64,124.45a2.76,2.76,0,0,0,4,2.46,9.3,9.3,0,0,0,3.67-3.63A8.92,8.92,0,0,0,73,119.17a1.93,1.93,0,0,1,0-.24A3.25,3.25,0,0,0,71.91,116,2,2,0,0,0,70.86,115.74Z"
            transform="translate(-7.63 -7.4)" />
        <path fill="currentColor"
            d="M32.44,81.53a10.14,10.14,0,0,1,9.24,1,10.2,10.2,0,0,1,4.14,8.31V91A9.74,9.74,0,0,1,53,92.51a10.11,10.11,0,0,1,4.13,8,9.82,9.82,0,0,1,7.82,1.63,9.72,9.72,0,0,1,3.73,6.48,9.74,9.74,0,0,1,7.14,1.12,10,10,0,0,1,4.49,7.12l7.67,3.68c.83.29,3.08.81,4.38,0,1.05-.69,1.68-2.51,1.79-5.14a3.94,3.94,0,0,1,.1-.7l-13.1-12.88a3.7,3.7,0,1,1,5.19-5.28l14.49,14.24c1.07.34,3.43.88,4.53-.46,2.08-2.52,1.43-4.8.23-6C103.11,101.79,91.33,91,91.21,90.85a3.7,3.7,0,1,1,5-5.45c.49.45,12,11,14.57,13.6a12,12,0,0,1,1.3,1.56c1.68.2,4.65.28,5.68-1.49a6.12,6.12,0,0,0,.61-5.64L85.18,64.14c-3.18,1.42-9.39,4.45-13.8,8.18C66.77,76.2,61.1,77.73,56.19,76.4a9.45,9.45,0,0,1-6.71-5.76c-1.89-5.32-.69-18,16.79-28.74-5.72-2.27-10,.68-16.2,5l-.57.39a16.43,16.43,0,0,1-9.43,3.16A14.39,14.39,0,0,1,31,47.25l-13.3-7.83a67.08,67.08,0,0,0-10.08,35L25.3,86.86A15.61,15.61,0,0,1,32.44,81.53Z"
            transform="translate(-7.63 -7.4)" />
        <path fill="currentColor"
            d="M123.86,44.52c-9.52,7-15.88,5.47-27.42-1-5.35-3-7.54-3.92-10-3.55-3,.45-7.26,2.92-15,7.41l-.21.12c-8.29,4.82-12,9.74-13.55,13-1.82,3.71-1.66,6.54-1.27,7.62a2.42,2.42,0,0,0,1.67,1.09c2,.53,5.24.13,8.47-2.6,7.09-6,17.49-10.11,17.93-10.28l2.1-.83,36.48,32.18,19.39-9.85c0-1,.06-2,.06-3A67.1,67.1,0,0,0,132,38.61Z"
            transform="translate(-7.63 -7.4)" />
        <path fill="currentColor"
            d="M59.21,107.66a4.16,4.16,0,0,0-1.29.22A8.42,8.42,0,0,0,53.83,111a9.37,9.37,0,0,0-2,4.75,2.78,2.78,0,0,0,3.78,2.82,8.76,8.76,0,0,0,3.54-2.73l.09-.15A18.86,18.86,0,0,1,60.36,114a8,8,0,0,0,1-3.57,3,3,0,0,0-.89-2.43A2.09,2.09,0,0,0,59.21,107.66Z"
            transform="translate(-7.63 -7.4)" />
        <path fill="currentColor"
            d="M124.17,102.77c-2.28,4-6.45,5.21-10.16,5.31a12.76,12.76,0,0,1-3,6.87,9.92,9.92,0,0,1-8,3.55,13.86,13.86,0,0,1-1.84-.13c-.63,3.82-2.28,6.61-4.91,8.31a10.78,10.78,0,0,1-5.92,1.65,14.92,14.92,0,0,1-5.29-1l-.22-.1-5.62-2.69a17.11,17.11,0,0,1-1.31,2.6,16.23,16.23,0,0,1-6.93,6.5,10.56,10.56,0,0,1-4.36,1,10.21,10.21,0,0,1-10-8.71,10.25,10.25,0,0,1-2.19.23,10.16,10.16,0,0,1-10-9.35,10.14,10.14,0,0,1-11.51-10,10.17,10.17,0,0,1-11.3-10.34A13.07,13.07,0,0,1,22,93.6L8.23,83.85a67.47,67.47,0,0,0,133.3,2.82l-15.38,7.82A14,14,0,0,1,124.17,102.77Z"
            transform="translate(-7.63 -7.4)" />
        <path fill="currentColor"
            d="M47.53,98.26c-1.57,0-3.76,1.2-5.35,3.48-.37.54-3.53,5.26-.66,7.25s6.18-2.62,6.55-3.15A8.56,8.56,0,0,0,49.71,101a3,3,0,0,0-1-2.39A2.12,2.12,0,0,0,47.53,98.26Z"
            transform="translate(-7.63 -7.4)" />
        <path fill="currentColor"
            d="M36.26,88.26a4.41,4.41,0,0,0-1.39.26,8.49,8.49,0,0,0-4,3.22A9.34,9.34,0,0,0,29,96.56a2.79,2.79,0,0,0,2.72,2.92c2.41,0,4.72-3.21,5-3.65A8.49,8.49,0,0,0,38.42,91a3,3,0,0,0-1-2.39A2,2,0,0,0,36.26,88.26Z"
            transform="translate(-7.63 -7.4)" />
    </g>
</svg>