<?xml version="1.0" encoding="UTF-8"?>
<svg xmlns="http://www.w3.org/2000/svg" viewBox="0 0 170.46 51.39">
  <path
    d="m36.28,12.24v16.49c0,.56-.45,1.01-1.01,1.01h-5.21c-.56,0-1.01-.45-1.01-1.01V1.91c0-.56.45-1.01,1.01-1.01h4.82c.56,0,1.01.45,1.01,1.01v3.78s1.72-5.39,6.83-5.39c0,0,5.05-.61,7.11,5,0,0,1.72-5,6.94-5,0,0,7.77-.46,7.77,7.57l.06,4.43v16.49c0,.56-.45,1.01-1.01,1.01h-5.21c-.56,0-1.01-.45-1.01-1.01l-.05-17.99c.15-4.07-3.15-3.78-3.15-3.78-4.15.07-3.75,5.28-3.75,5.28v16.49c0,.56-.45,1.01-1.01,1.01h-5.21c-.56,0-1.01-.45-1.01-1.01V11.2s.3-4.22-3.4-4.22c0,0-3.67-.48-3.54,5.26Zm134.19-.05v16.49c0,.56-.45,1.01-1.01,1.01l-5.41.1c-.56,0-1.01-.45-1.01-1.01V11.2s.3-4.22-3.4-4.22c0,0-3.54-.17-3.54,6.44v15.3c0,.56-.45,1.01-1.01,1.01h-5.21c-.56,0-1.01-.45-1.01-1.01V1.91c0-.56.45-1.01,1.01-1.01h4.82c.56,0,1.01.45,1.01,1.01h0v3.78s1.72-5.39,6.83-5.39c0,0,5.47-.83,7.32,4.89,0,0,.6,1.18.6,7ZM132.88.19c-6.66,0-12.05,5.61-12.05,15.05,0,8.31,4.17,15.05,12.05,15.05,7.44,0,12.05-6.74,12.05-15.05,0-9.28-5.4-15.05-12.05-15.05Zm4.2,15.39c0,3.56-.44,5.44-.44,5.44-.63,3.76-3.36,3.76-3.76,3.74-.43.02-3.19-.02-3.75-3.74,0,0-.44-1.89-.44-5.44v-.59c0-3.56.44-5.44.44-5.44.57-3.72,3.32-3.76,3.75-3.74.4-.02,3.13-.02,3.76,3.74,0,0,.44,1.89.44,5.44v.59Zm-19.28-9.92V1.8c0-.56-.45-1.01-1.01-1.01h-17.21c-.56,0-1.01.45-1.01,1.01h0v3.82c0,.56.45,1.01,1.01,1.01h8.98l-10.62,15.41s-.42.62-.4,1.31v4.69s-.07,1.61,1.75.67c0,0,3.24-1.96,8.67-1.96,0,0,5.36-.07,8.94,2.12,0,0,1.48.67,1.48-.81v-4.08s.13-1.08-1.28-1.75c0,0-4.11-2.26-9.51-1.89l10.22-14.7ZM25.04,24.94l-1.63-2.48c-.52-.93-.48-1.96-.48-1.96v-11.44C23.15-.83,12.19.02,12.19.02,2.44.02,1,7.6,1,7.6c-.41,1.52.78,1.56.78,1.56l4.76.48s.81.19,1.11-.78c0,0,.63-3.31,4.13-3.31,3.82,0,3.78,3.27,3.78,3.27v2.74c-7.62.25-11.15,2.37-11.15,2.37C-.29,16.61,0,21.9,0,21.9,0,30.53,8.22,30.16,8.22,30.16c5.26,0,8.37-3.85,8.37-3.85.93,1.63,2.63,3.18,2.63,3.18.85.92,1.74.15,1.74.15l3.85-3.3c.85-.63.22-1.41.22-1.41Zm-14.25-.11c-2.47,0-3.39-2.46-2.98-4.87.41-2.42,2.55-4.31,7.75-4.26v1.47c.18,6.42-2.71,7.66-4.77,7.66h0Zm83.42.11l-1.63-2.48c-.52-.93-.48-1.96-.48-1.96v-11.44C92.33-.83,81.36.02,81.36.02c-9.74,0-11.18,7.58-11.18,7.58-.41,1.52.78,1.56.78,1.56l4.76.48s.81.19,1.11-.78c0,0,.63-3.31,4.13-3.31,3.82,0,3.78,3.27,3.78,3.27v2.74c-7.62.25-11.15,2.37-11.15,2.37-4.7,2.67-4.41,7.96-4.41,7.96,0,8.63,8.22,8.26,8.22,8.26,5.26,0,8.37-3.85,8.37-3.85.93,1.63,2.63,3.18,2.63,3.18.85.92,1.74.15,1.74.15l3.85-3.3c.85-.63.22-1.41.22-1.41h0Zm-14.25-.11c-2.47,0-3.39-2.46-2.98-4.87.41-2.42,2.55-4.31,7.75-4.26v1.47c.18,6.42-2.71,7.66-4.77,7.66h0Z" />
  <g>
    <path fill="currentColor"
      d="m107.32,46.6s-.44.76.1.93c0,0,.6.24,1.36-.46,0,0,5.5-4.8,5.63-13.54,0,0,.04-1.09-.4-1.39,0,0-1.72-1.52-7.91-1.06,0,0-5.4.36-8.34,2.98,0,0-.26.23-.26.53,0,0-.06.64,1.56.36,0,0,5.4-.76,8.61-.36,0,0,1.66.2,2.12.76,0,0,.76.63.36,2.71,0,0-1.09,5.3-2.81,8.54h0Z" />
    <path fill="currentColor"
      d="m106.23,38.21s.81,1.04-.49,1.95c0,0-13.89,11.11-37.23,11.11,0,0-24.02,1.18-44.07-17.04,0,0-.7-.62-.27-1.19,0,0,.39-.53,1.4.05,0,0,18.86,11.75,43.64,11.75,0,0,17.22.67,34.88-6.89,0,0,1.41-.73,2.13.25h0Z" />
  </g>
</svg>