<?xml version="1.0" encoding="UTF-8"?>
<svg id="Camada_1" data-name="Camada 1" xmlns="http://www.w3.org/2000/svg" viewBox="0 0 233.34 199.44">
  <defs>
    <style>
      .cls-1 {
        fill: #d6cae5;
      }

      .cls-2 {
        fill: #b4a5d0;
      }

      .cls-3 {
        fill: #8c7fba;
      }

      .cls-4 {
        fill: #f4f0f8;
      }
    </style>
  </defs>
  <path class="cls-4" d="m158.07,8.35s-31.96,40.49-83.1,16.34C23.83.54-27.31,65.88,16.73,105.65c44.04,39.77.94,61.63,30.86,86.01,34,27.71,63.6-28.48,90.59-15.69,59.57,28.22,103.7,17.05,93.76-15.62-17.46-57.35-39.77-61.08-22.73-90.91,17.05-29.83-20.57-91.86-51.14-61.08Z"/>
  <path class="cls-3" d="m116.15,94.89v84.94l-65.95-28.48.31-84.63,65.63,28.18Z"/>
  <path class="cls-1" d="m116.15,94.94v84.94l65.63-27.5v-85.39l-65.63,27.96Z"/>
  <path class="cls-3" d="m116.15,94.89l65.95-27.62-65.43-29-66.47,28.31,65.95,28.31Z"/>
  <path class="cls-2" d="m32.2,81.72l66.37,32.21c.18.09.38.11.57.07.19-.04.37-.14.5-.29l16.51-18.84-65.95-28.31-18.16,13.61c-.12.09-.22.22-.28.36-.06.14-.09.3-.07.45.01.15.07.3.16.43.09.13.21.23.35.3Z"/>
  <path class="cls-2" d="m182.1,67.26l18.32,16.56c.11.1.2.23.25.37.05.14.06.29.04.44-.02.15-.08.29-.18.41-.09.12-.21.21-.35.28l-65.55,29.25c-.18.08-.37.1-.56.06-.19-.04-.36-.14-.49-.28l-17.43-19.47,65.95-27.62Z"/>
  <path class="cls-2" d="m116.67,38.26l65.61,29,9.44-2.19c.19-.04.35-.14.48-.29.12-.14.2-.32.22-.51.02-.19-.03-.38-.12-.54-.1-.16-.24-.29-.42-.37l-59.91-25.96c-.13-.06-.27-.08-.42-.07l-14.88.93Z"/>
  <path class="cls-2" d="m116.67,38.26l-65.25,28.45-8.25-1.39c-.19-.04-.37-.13-.5-.27-.13-.14-.21-.32-.24-.52-.02-.19.02-.39.12-.56.1-.17.25-.3.43-.38l61.39-26.46c.14-.06.28-.08.43-.07l11.86,1.19Z"/>
</svg>