<?xml version="1.0" encoding="UTF-8"?>
<svg id="lupa" xmlns="http://www.w3.org/2000/svg" viewBox="0 0 233.34 199.44">
  <defs>
    <style>
      .cls-1 {
        fill: #b4a5d0;
      }

      .cls-2 {
        fill: #665ba4;
      }

      .cls-3 {
        fill: #f4f0f8;
      }
    </style>
  </defs>
  <path class="cls-3" d="m40.48,87.5s33.97-1.36,41.31-57.2c6.52-49.59,63.8-27.02,80.35-7.25,21.45,25.61,10.01,69.65,37.76,75.22,27.75,5.56,9.63,67.43-32.49,61.51-52.39-7.37-39.72,23.25-55.44,36.21-11.29,9.3-57.57.35-59.11-33.41-1.3-28.41-13.28-28.32-21.77-31.54-12.25-4.65-19.97-38.29,9.4-43.54Z"/>
  <path class="cls-1" d="m155.95,149.51l-33.37-32.98-6.61,6.69,33.37,32.98,6.61-6.69Z"/>
  <path class="cls-2" d="m168.7,158.37l-25.96-25.66c-.14-.14-.38-.14-.52,0l-9.83,9.94c-.14.14-.14.38,0,.52l25.96,25.66c.14.14.38.14.52,0l9.83-9.95c.14-.14.14-.38,0-.52Z"/>
  <path class="cls-2" d="m93,133.12c22.96,0,41.57-18.61,41.57-41.57s-18.61-41.57-41.57-41.57-41.57,18.61-41.57,41.57,18.61,41.57,41.57,41.57Z"/>
  <path class="cls-3" d="m93,126.34c19.21,0,34.79-15.57,34.79-34.79s-15.58-34.79-34.79-34.79-34.79,15.58-34.79,34.79,15.58,34.79,34.79,34.79Z"/>
</svg>