<?xml version="1.0" encoding="UTF-8"?>
<svg id="Camada_3" data-name="Camada 3" xmlns="http://www.w3.org/2000/svg" viewBox="0 0 233.34 199.44">
  <defs>
    <style>
      .cls-1 {
        fill: #fff;
      }

      .cls-2 {
        fill: #8c7fba;
      }

      .cls-3 {
        fill: #665ba4;
      }

      .cls-4 {
        fill: #f4f0f8;
      }
    </style>
  </defs>
  <path class="cls-4" d="m72.56,194.18c13.82,8.33,23.67,4.87,27.45-1.81,7.3-12.91,31.56-39.32,70.01-48.25,50.92-11.82,40.29-43.21,8.98-59.68-31.3-16.47-54.71-39.26-51.17-64.04,3.54-24.78-31.56-33.32-47.17,14.35-10.09,30.81-28.17,39.06-39.69,41.04-10.86,1.87-22.75,4.22-28.54,13.59-7.03,11.38-4.58,22.89,24.86,30.78,41.72,11.19,4.3,55.34,35.27,74.01Z"/>
  <path class="cls-3" d="m36.67,140.19c.58-.33,7.18-3.13,40.01,12.18-.1.13-.14.19-.14.19,0,0-34.13,11.49-40.82-2.67-2-4.22-1.42-7.12.88-9.67l.06-.03Z"/>
  <path class="cls-3" d="m147.01,145.98c-7.13,6-18.32,10.35-29.11,4.56,1.71-1.09,3.47-2.21,5.26-3.37,10.84-6.96,20.39-2.3,23.85-1.19Z"/>
  <path class="cls-2" d="m159.79,72.23c7.29,60.68-10.03,71.69-11.96,73.37-.56.48-.78.45-1.63.23h-.01c-3.57-.94-12.18-5.63-23.02,1.34-1.8,1.16-3.56,2.28-5.26,3.37-11.06,7.01-19.99,11.95-26.42,9.09-5.46-2.78-10.38-5.19-14.8-7.26-32.83-15.31-39.43-12.51-40.01-12.18.68-.37,6.9-3.82,15.28-9.89.03-.02.06-.03.06-.05,11.2-8.12,26.2-20.91,36.98-37.37,7.34-11.19,14.52-39.56,28.38-45.12,28.47-10.62,41.23,12.13,42.41,24.47Z"/>
  <path class="cls-1" d="m128.3,71.17c.88-2.33.8-4.53-.19-4.9-.99-.38-2.51,1.21-3.39,3.55-.88,2.33-.8,4.53.19,4.9.99.37,2.51-1.21,3.39-3.55Z"/>
  <path class="cls-1" d="m146.43,74.15c.63-2.42.3-4.59-.72-4.86-1.02-.27-2.36,1.48-2.99,3.89-.63,2.42-.3,4.59.72,4.86,1.02.27,2.36-1.48,2.99-3.89Z"/>
  <path class="cls-1" d="m135.4,83.02c-.15,0-.29-.05-.41-.14-.12-.09-.2-.22-.23-.37-.12-.53-.63-2.08-1.45-2.31-.82-.23-2.42.67-3.07,1.14-.14.1-.31.14-.48.12-.17-.03-.32-.12-.42-.26-.1-.14-.14-.31-.12-.48.03-.17.12-.32.26-.42.26-.19,2.55-1.8,4.19-1.34,1.71.48,2.31,3,2.37,3.29.02.1.02.19,0,.29-.02.09-.07.18-.13.26-.06.08-.14.14-.23.18-.09.04-.18.06-.28.06h0Z"/>
</svg>