<?xml version="1.0" encoding="UTF-8"?>
<svg id="Camada_5" data-name="Camada 5" xmlns="http://www.w3.org/2000/svg" viewBox="0 0 233.34 199.44">
  <defs>
    <style>
      .cls-1 {
        fill: #b4a5d0;
      }

      .cls-2 {
        fill: #8c7fba;
      }

      .cls-3 {
        fill: #665ba4;
      }

      .cls-4 {
        fill: #f4f0f8;
      }
    </style>
  </defs>
  <path class="cls-4" d="m198.05,72.46s-28.49,20.51-3.03,72.78c22.61,46.43-39.58,59.59-65.09,51.98-33.05-9.85-48.27-54.3-75.34-43.3-27.07,11-46.67-52.61-7.02-71.48,49.32-23.47,20.98-42.63,27.15-62.75,4.43-14.44,49.4-33.07,69.94-4.86,17.29,23.73,27.56,16.83,36.71,14.77,13.2-2.97,39,21.62,16.69,42.85Z"/>
  <path class="cls-4" d="m166.81,92.33l-8.44-1.36c-.07-.01-.13.03-.14.1l-10.06,62.6c-.01.07.04.13.1.14l8.44,1.36c.07.01.13-.03.14-.1l10.06-62.6c.01-.07-.04-.13-.1-.14Z"/>
  <path class="cls-3" d="m154.25,133.77c-8.28,7.37-18.99,11.44-30.08,11.42-25.11,0-45.52-20.41-45.52-45.52s18.89-43.97,42.68-45.41v19.04c-13.32,1.4-23.71,12.71-23.71,26.37,0,14.64,11.91,26.55,26.55,26.55,6.3,0,12.1-2.2,16.65-5.88l13.43,13.43Z"/>
  <path class="cls-2" d="m169.58,96.82h-19.04c-1.32-12.4-11.12-22.2-23.52-23.52v-19.04c22.84,1.37,41.2,19.73,42.56,42.56Z"/>
  <path class="cls-1" d="m169.58,102.47c-.61,10.39-4.74,19.88-11.3,27.24l-13.43-13.43c3.2-3.95,5.18-8.75,5.69-13.81h19.04Z"/>
</svg>