<?xml version="1.0" encoding="UTF-8"?>
<svg id="Camada_2" data-name="Camada 2" xmlns="http://www.w3.org/2000/svg" viewBox="0 0 218.97 47.11">
  <path fill="currentColor" d="m216.81.78h-4.96c-1.42,0-2.28.86-2.28,2.24v14.45c0,5.3-2.91,8.29-6.94,8.29-4.22.04-6.64-2.69-6.64-7.91V3.06c0-1.38-.86-2.24-2.28-2.24h-4.96c-1.42,0-2.28.86-2.28,2.24v15.49c0,9.85,5.19,15.42,12.95,15.42,4.67,0,8.29-1.53,10.82-4.67l.41,1.94c.3,1.27,1.12,1.94,2.46,1.94h3.62c1.42,0,2.28-.86,2.28-2.24V3.02c.07-1.38-.78-2.24-2.2-2.24h0Zm-34.56,23.89h-8.92c-3.1,0-4.74-1.61-4.74-4.67V3.06c0-1.38-.86-2.24-2.28-2.24h-5.11c-1.42,0-2.28.86-2.28,2.24v18.14c0,7.47,4.59,12.02,12.21,12.02h11.12c1.42,0,2.28-.86,2.28-2.24v-4.07c0-1.42-.86-2.24-2.28-2.24h0ZM37.87,2.95c-.15-1.46-.93-2.16-2.35-2.16h-3.73c-1.19,0-2.05.49-2.69,1.53l-9.15,15.23L11.44,2.35c-.56-1.05-1.49-1.53-2.69-1.53h-4.03c-1.42,0-2.2.71-2.35,2.16L.02,30.91c-.15,1.53.63,2.31,2.13,2.31h4.55c1.42,0,2.28-.71,2.35-2.16l1.01-15.64,5.45,9.7c.56,1.05,1.49,1.53,2.69,1.53h3.1c1.19,0,2.05-.41,2.69-1.53l6.16-10.41.71,16.31c.07,1.49.86,2.16,2.28,2.16h4.89c1.49,0,2.28-.78,2.13-2.31l-2.28-27.92h0ZM152.35.78h-3.88c-1.34,0-2.28.71-2.46,2.02l-.22,1.61c-2.2-2.31-5.38-4.4-10.71-4.4-8.92,0-15.53,6.91-15.53,16.87s6.16,17.02,14.93,17.02c5.52,0,9.15-2.31,11.35-4.67l.37,1.94c.22,1.27,1.08,1.94,2.43,1.94h3.77c1.42,0,2.28-.86,2.28-2.24V2.95c-.04-1.31-.9-2.16-2.31-2.16h0Zm-15.23,25.01c-5.04,0-8.21-3.43-8.21-8.73s3.32-8.85,8.21-8.85,8.21,3.43,8.21,8.73-3.32,8.85-8.21,8.85h0ZM113.9.78h-3.88c-1.34,0-2.28.71-2.46,2.02l-.22,1.61c-2.2-2.31-5.38-4.4-10.71-4.4-8.92,0-15.49,6.49-15.49,16.46s6.08,16.2,14.86,16.2c5.45,0,8.7-2.24,10.9-4.59v1.61c0,5.6-3.17,9.15-9.93,9.15-2.76,0-5.49-.56-8.03-1.68-1.34-.63-2.43-.34-3.06.97l-1.57,3.06c-.63,1.27-.41,2.31.78,2.99,3.77,2.09,8.36,2.95,12.8,2.95,11.12,0,18.22-6.91,18.22-16.54V3.02c.04-1.38-.78-2.24-2.2-2.24Zm-15.23,23.96c-4.89,0-8.21-3.21-8.21-8.17,0-5.23,3.47-8.36,8.21-8.36s8.21,2.87,8.21,8.25c0,4.78-3.47,8.29-8.21,8.29h0ZM75.42.78h-3.88c-1.34,0-2.28.71-2.46,2.02l-.22,1.61C66.65,2.09,63.47,0,58.17,0,49.25,0,42.65,6.91,42.65,16.87s6.16,17.02,14.93,17.02c5.52,0,9.15-2.31,11.35-4.67l.37,1.94c.22,1.27,1.08,1.94,2.43,1.94h3.7c1.42,0,2.28-.86,2.28-2.24V2.95c0-1.31-.86-2.16-2.28-2.16h0Zm-15.23,25.01c-5.04,0-8.21-3.43-8.21-8.73s3.32-8.85,8.21-8.85,8.21,3.43,8.21,8.73-3.32,8.85-8.21,8.85h0Z"/>
</svg>