<svg xmlns="http://www.w3.org/2000/svg" viewBox="0 0 218.97 70.01">
  <path
    fill="currentColor"
    d="m39.96,49.41c-.38,3.17-2.31,5.71-5.28,6.98-1.66.71-3.88,1.09-5.64.97-2.75-.11-5.33-.77-7.71-1.99-.85-.44-2.12-1.31-3.09-2.12-.25-.21-.28-.34-.11-.57.09-.13.25-.37.61-.9.52-.76.59-.86.64-.95.17-.26.44-.28.7-.07t.05.04s.04.03.15.11c.1.08.17.13.19.15,2.57,2.01,5.55,3.17,8.57,3.28,4.2-.06,7.22-1.94,7.76-4.84.59-3.19-1.91-5.94-6.81-7.48-1.53-.48-5.4-2.03-6.12-2.45-3.35-1.97-4.92-4.54-4.7-7.73.34-4.41,4.44-7.7,9.61-7.72,2.31,0,4.62.48,6.84,1.41.79.33,2.19,1.09,2.67,1.46.28.2.33.44.17.7-.09.15-.24.39-.55.88h0c-.41.66-.42.68-.52.83-.16.25-.35.27-.65.08-2.37-1.59-5.01-2.4-7.9-2.46-3.6.07-6.3,2.22-6.48,5.14-.05,2.64,1.93,4.57,6.21,6.03,8.68,2.79,12,6.06,11.37,11.21M29.24,3.85c5.65,0,10.26,5.36,10.47,12.07h-20.94c.22-6.71,4.82-12.07,10.47-12.07m29.24,13.34c0-.7-.56-1.26-1.25-1.26h-13.57c-.33-8.86-6.66-15.93-14.41-15.93s-14.08,7.07-14.41,15.93H1.24c-.68.01-1.23.57-1.23,1.26,0,.03,0,.07,0,.1h0l1.94,42.71c0,.12,0,.24.01.36,0,.03,0,.05,0,.08v.09s0,0,0,0c.29,2.97,2.45,5.37,5.38,5.48h0s43.12,0,43.12,0c.02,0,.04,0,.06,0s.04,0,.06,0h.09c2.98-.08,5.4-2.51,5.66-5.52h0s0-.04,0-.04c0-.03,0-.06,0-.09,0-.08,0-.15,0-.23l2.11-42.88h0s0-.04,0-.07m143.74,27.84c.83-2.71,3.34-4.52,6.27-4.52s5.46,1.9,6.38,4.51l.06.18h-12.77l.05-.17Zm15.56,3.93s.02,0,.04,0t.05,0c.61-.03,1.1-.55,1.1-1.18,0-.03,0-.06,0-.1,0,0,0-.02,0-.07,0-5.98-4.69-10.83-10.48-10.83s-10.48,4.85-10.48,10.83c0,.45.03.89.08,1.33v.02s.02.12.02.12c.29,2.15,1.21,4.13,2.66,5.73,0,0,0,0,0,0,1.61,1.77,3.79,2.98,6.22,3.43h.03s0,0,0,0l.16.03c.08.01.17.03.28.04,3.19.38,6.02-.08,8.41-1.28.59-.3,1.12-.63,1.58-.97.15-.11.28-.22.4-.32.06-.05.11-.1.13-.12.54-.56.57-.75.25-1.26-.36-.57-.68-1.06-.95-1.46-.09-.14-.18-.26-.25-.36q-.04-.05-.06-.09s0-.01-.02-.02h0c-.3-.37-.5-.41-.83-.12-.03.03-.15.12-.17.14-2.3,2.05-5.45,2.7-8.59,2.05-.59-.16-1.13-.36-1.64-.6-1.97-.99-3.36-2.75-3.77-4.78l-.03-.16h15.85Zm-40.49-3.93c.83-2.71,3.34-4.52,6.27-4.52s5.46,1.9,6.38,4.51l.06.18h-12.77l.05-.17Zm15.56,3.93s.02,0,.04,0t.05,0c.61-.03,1.1-.55,1.1-1.18,0-.03,0-.06,0-.1,0,0,0-.02,0-.07,0-5.98-4.69-10.83-10.48-10.83s-10.48,4.85-10.48,10.83c0,.45.03.89.08,1.33v.02s.02.12.02.12c.29,2.15,1.21,4.13,2.66,5.73,0,0,0,0,0,0,1.61,1.77,3.79,2.98,6.22,3.43h.03s0,0,0,0l.16.03c.08.01.17.03.28.04,3.19.38,6.02-.08,8.41-1.28.59-.3,1.12-.63,1.58-.97.15-.11.28-.22.4-.32.06-.05.11-.1.13-.12.54-.56.57-.75.25-1.26-.36-.57-.68-1.06-.95-1.46-.09-.14-.18-.26-.25-.36q-.04-.05-.06-.09s0-.01-.02-.02h0c-.3-.37-.5-.41-.83-.12-.03.03-.15.12-.17.14-2.3,2.05-5.45,2.7-8.59,2.05-.59-.16-1.13-.36-1.64-.6-1.97-.99-3.36-2.75-3.77-4.78l-.03-.16h15.85Zm-34.59,5.97c-3.9,0-7.08-3.09-7.18-6.96v-.36c.1-3.87,3.29-6.96,7.18-6.96s7.18,3.2,7.18,7.14-3.22,7.14-7.18,7.14m0-18.07c-2.56,0-5,.87-6.96,2.47l-.22.18v-2c0-.53-.11-.65-.65-.65h-2.51c-.55,0-.65.11-.65.65v31.85c0,.52.12.65.65.65h2.51c.53,0,.65-.12.65-.65v-13.28l.22.18c1.96,1.6,4.41,2.47,6.96,2.47,6.08,0,11-4.9,11-10.93s-4.92-10.93-11-10.93m-25.83,17.83c-3.98,0-7.2-3.17-7.2-7.08s3.22-7.08,7.2-7.08,7.2,3.17,7.2,7.08-3.22,7.08-7.2,7.08m0-17.91c-6.09,0-11.02,4.85-11.02,10.84s4.93,10.84,11.02,10.84,11.02-4.85,11.02-10.84-4.93-10.84-11.02-10.84m-24.57.24c-2.22,0-4.37.71-6.16,2.03l-.22.16v-14.79c0-.49-.16-.65-.65-.65h-2.63c-.53,0-.65.13-.65.65v33.75c0,.51.13.65.65.65h2.63c.49,0,.65-.17.65-.65v-11.02c.03-3.47,2.87-6.27,6.37-6.27s6.36,2.81,6.37,6.3v11c0,.56.09.65.65.65h2.62c.56,0,.65-.1.65-.65v-11.03c-.02-5.56-4.66-10.12-10.29-10.12m-36.59,15.68h0c-.37.58-.53.82-.62.95-.3.44-.26.64.19,1.02,1.05.85,2.4,1.74,3.32,2.18,2.54,1.24,5.28,1.9,8.18,1.96,1.88.09,4.23-.35,5.99-1.13,3.18-1.42,5.2-4.18,5.56-7.58.57-5.51-3.01-8.96-12.25-11.74h0c-4.31-1.39-6.33-3.24-6.33-5.81.13-2.85,2.77-4.98,6.33-5.11,2.87,0,5.41.77,7.9,2.37.53.32.77.26,1.12-.2.04-.07.15-.23.63-.91h0c.44-.64.59-.85.62-.91.3-.56.26-.78-.28-1.16-.53-.38-2.02-1.16-2.87-1.5-2.37-.95-4.82-1.41-7.27-1.36-5.55.12-9.89,3.73-10.17,8.47-.18,3.42,1.56,6.18,5.19,8.21,1.02.54,4.74,1.94,6.48,2.45,4.94,1.45,7.51,4.11,6.98,7.25-.48,2.85-3.47,4.75-7.66,4.88-3.04-.06-6.1-1.18-8.76-3.18-.01,0-.08-.06-.21-.15q-.17-.13-.2-.15c-.54-.37-.86-.34-1.19.15-.04.06-.45.69-.65.99" />
</svg>